{
  "accessors": [
    {
      "bufferView": 1,
      "componentType": 5126,
      "count": 676,
      "max": [
        1.6430331468582153,
        1.6020790338516235,
        1.4574377536773682
      ],
      "min": [
        -1.8958988189697266,
        -1.0052509307861328,
        -1.9877371788024902
      ],
      "type": "VEC3"
    },
    {
      "bufferView": 1,
      "byteOffset": 8112,
      "componentType": 5126,
      "count": 676,
      "max": [
        0.9970064759254456,
        0.9995371103286743,
        0.9954431056976318
      ],
      "min": [
        -0.9970064759254456,
        -0.9984735250473022,
        -0.9954403042793274
      ],
      "type": "VEC3"
    },
    {
      "bufferView": 2,
      "componentType": 5126,
      "count": 676,
      "max": [
        1.0,
        1.0,
        1.0,
        1.0
      ],
      "min": [
        0.0,
        0.0,
        0.0,
        1.0
      ],
      "type": "VEC4"
    },
    {
      "bufferView": 0,
      "componentType": 5125,
      "count": 2268,
      "type": "SCALAR"
    },
    {
      "bufferView": 1,
      "byteOffset": 16224,
      "componentType": 5126,
      "count": 244,
      "max": [
        4.814777374267578,
        0.10298371315002441,
        4.273619174957275
      ],
      "min": [
        1.1639635562896729,
        -2.744075298309326,
        0.9019039869308472
      ],
      "type": "VEC3"
    },
    {
      "bufferView": 1,
      "byteOffset": 19152,
      "componentType": 5126,
      "count": 244,
      "max": [
        0.9978048205375671,
        0.9995371103286743,
        0.9954432249069214
      ],
      "min": [
        -0.9978048205375671,
        -0.9984735250473022,
        -0.9954432249069214
      ],
      "type": "VEC3"
    },
    {
      "bufferView": 2,
      "byteOffset": 10816,
      "componentType": 5126,
      "count": 244,
      "max": [
        1.0,
        1.0,
        1.0,
        1.0
      ],
      "min": [
        1.0,
        1.0,
        1.0,
        1.0
      ],
      "type": "VEC4"
    },
    {
      "bufferView": 0,
      "byteOffset": 9072,
      "componentType": 5125,
      "count": 1008,
      "type": "SCALAR"
    },
    {
      "bufferView": 1,
      "byteOffset": 22080,
      "componentType": 5126,
      "count": 244,
      "max": [
        0.6718103289604187,
        3.0982823371887207,
        0.4573279023170471
      ],
      "min": [
        -0.4934585690498352,
        1.5587210655212402,
        -0.7103099226951599
      ],
      "type": "VEC3"
    },
    {
      "bufferView": 1,
      "byteOffset": 25008,
      "componentType": 5126,
      "count": 244,
      "max": [
        0.9928967356681824,
        0.9995371103286743,
        0.9938389658927917
      ],
      "min": [
        -0.9884373545646667,
        -0.9984735250473022,
        -0.9917641282081604
      ],
      "type": "VEC3"
    },
    {
      "bufferView": 2,
      "byteOffset": 14720,
      "componentType": 5126,
      "count": 244,
      "max": [
        1.0,
        1.0,
        1.0,
        1.0
      ],
      "min": [
        1.0,
        1.0,
        1.0,
        1.0
      ],
      "type": "VEC4"
    },
    {
      "bufferView": 0,
      "byteOffset": 13104,
      "componentType": 5125,
      "count": 1008,
      "type": "SCALAR"
    },
    {
      "bufferView": 1,
      "byteOffset": 27936,
      "componentType": 5126,
      "count": 244,
      "max": [
        -1.6028246879577637,
        0.3699835538864136,
        3.3311831951141357
      ],
      "min": [
        -6.258821964263916,
        -2.9241342544555664,
        0.061797380447387695
      ],
      "type": "VEC3"
    },
    {
      "bufferView": 1,
      "byteOffset": 30864,
      "componentType": 5126,
      "count": 244,
      "max": [
        0.9928967356681824,
        0.9995371103286743,
        0.9938389658927917
      ],
      "min": [
        -0.9884373545646667,
        -0.9984735250473022,
        -0.9917641282081604
      ],
      "type": "VEC3"
    },
    {
      "bufferView": 2,
      "byteOffset": 18624,
      "componentType": 5126,
      "count": 244,
      "max": [
        1.0,
        1.0,
        1.0,
        1.0
      ],
      "min": [
        1.0,
        1.0,
        1.0,
        1.0
      ],
      "type": "VEC4"
    },
    {
      "bufferView": 0,
      "byteOffset": 17136,
      "componentType": 5125,
      "count": 1008,
      "type": "SCALAR"
    },
    {
      "bufferView": 1,
      "byteOffset": 33792,
      "componentType": 5126,
      "count": 244,
      "max": [
        1.8644920587539673,
        -0.29218101501464844,
        -1.7244412899017334
      ],
      "min": [
        -0.44274044036865234,
        -2.6215929985046387,
        -5.172361373901367
      ],
      "type": "VEC3"
    },
    {
      "bufferView": 1,
      "byteOffset": 36720,
      "componentType": 5126,
      "count": 244,
      "max": [
        0.9928967356681824,
        0.9995371103286743,
        0.9938389658927917
      ],
      "min": [
        -0.9884373545646667,
        -0.9984735250473022,
        -0.9917641282081604
      ],
      "type": "VEC3"
    },
    {
      "bufferView": 2,
      "byteOffset": 22528,
      "componentType": 5126,
      "count": 244,
      "max": [
        1.0,
        1.0,
        1.0,
        1.0
      ],
      "min": [
        1.0,
        1.0,
        1.0,
        1.0
      ],
      "type": "VEC4"
    },
    {
      "bufferView": 0,
      "byteOffset": 21168,
      "componentType": 5125,
      "count": 1008,
      "type": "SCALAR"
    },
    {
      "bufferView": 1,
      "byteOffset": 39648,
      "componentType": 5126,
      "count": 676,
      "max": [
        1.6430331468582153,
        1.6020790338516235,
        1.4574377536773682
      ],
      "min": [
        -1.8958988189697266,
        -1.0052509307861328,
        -1.9877371788024902
      ],
      "type": "VEC3"
    },
    {
      "bufferView": 1,
      "byteOffset": 47760,
      "componentType": 5126,
      "count": 676,
      "max": [
        0.9970064759254456,
        0.9995371103286743,
        0.9954431056976318
      ],
      "min": [
        -0.9970064759254456,
        -0.9984735250473022,
        -0.9954403042793274
      ],
      "type": "VEC3"
    },
    {
      "bufferView": 2,
      "byteOffset": 26432,
      "componentType": 5126,
      "count": 676,
      "max": [
        1.0,
        1.0,
        1.0,
        1.0
      ],
      "min": [
        0.0,
        0.0,
        0.0,
        1.0
      ],
      "type": "VEC4"
    },
    {
      "bufferView": 0,
      "byteOffset": 25200,
      "componentType": 5125,
      "count": 2268,
      "type": "SCALAR"
    },
    {
      "bufferView": 1,
      "byteOffset": 55872,
      "componentType": 5126,
      "count": 244,
      "max": [
        4.814777374267578,
        0.10298371315002441,
        4.273619174957275
      ],
      "min": [
        1.1639635562896729,
        -2.744075298309326,
        0.9019039869308472
      ],
      "type": "VEC3"
    },
    {
      "bufferView": 1,
      "byteOffset": 58800,
      "componentType": 5126,
      "count": 244,
      "max": [
        0.9978048205375671,
        0.9995371103286743,
        0.9954432249069214
      ],
      "min": [
        -0.9978048205375671,
        -0.9984735250473022,
        -0.9954432249069214
      ],
      "type": "VEC3"
    },
    {
      "bufferView": 2,
      "byteOffset": 37248,
      "componentType": 5126,
      "count": 244,
      "max": [
        1.0,
        1.0,
        1.0,
        1.0
      ],
      "min": [
        1.0,
        1.0,
        1.0,
        1.0
      ],
      "type": "VEC4"
    },
    {
      "bufferView": 0,
      "byteOffset": 34272,
      "componentType": 5125,
      "count": 1008,
      "type": "SCALAR"
    },
    {
      "bufferView": 1,
      "byteOffset": 61728,
      "componentType": 5126,
      "count": 244,
      "max": [
        0.6718103289604187,
        3.0982823371887207,
        0.4573279023170471
      ],
      "min": [
        -0.4934585690498352,
        1.5587210655212402,
        -0.7103099226951599
      ],
      "type": "VEC3"
    },
    {
      "bufferView": 1,
      "byteOffset": 64656,
      "componentType": 5126,
      "count": 244,
      "max": [
        0.9928967356681824,
        0.9995371103286743,
        0.9938389658927917
      ],
      "min": [
        -0.9884373545646667,
        -0.9984735250473022,
        -0.9917641282081604
      ],
      "type": "VEC3"
    },
    {
      "bufferView": 2,
      "byteOffset": 41152,
      "componentType": 5126,
      "count": 244,
      "max": [
        1.0,
        1.0,
        1.0,
        1.0
      ],
      "min": [
        1.0,
        1.0,
        1.0,
        1.0
      ],
      "type": "VEC4"
    },
    {
      "bufferView": 0,
      "byteOffset": 38304,
      "componentType": 5125,
      "count": 1008,
      "type": "SCALAR"
    },
    {
      "bufferView": 1,
      "byteOffset": 67584,
      "componentType": 5126,
      "count": 244,
      "max": [
        -1.6028246879577637,
        0.3699835538864136,
        3.3311831951141357
      ],
      "min": [
        -6.258821964263916,
        -2.9241342544555664,
        0.061797380447387695
      ],
      "type": "VEC3"
    },
    {
      "bufferView": 1,
      "byteOffset": 70512,
      "componentType": 5126,
      "count": 244,
      "max": [
        0.9928967356681824,
        0.9995371103286743,
        0.9938389658927917
      ],
      "min": [
        -0.9884373545646667,
        -0.9984735250473022,
        -0.9917641282081604
      ],
      "type": "VEC3"
    },
    {
      "bufferView": 2,
      "byteOffset": 45056,
      "componentType": 5126,
      "count": 244,
      "max": [
        1.0,
        1.0,
        1.0,
        1.0
      ],
      "min": [
        1.0,
        1.0,
        1.0,
        1.0
      ],
      "type": "VEC4"
    },
    {
      "bufferView": 0,
      "byteOffset": 42336,
      "componentType": 5125,
      "count": 1008,
      "type": "SCALAR"
    },
    {
      "bufferView": 1,
      "byteOffset": 73440,
      "componentType": 5126,
      "count": 244,
      "max": [
        1.8644920587539673,
        -0.29218101501464844,
        -1.7244412899017334
      ],
      "min": [
        -0.44274044036865234,
        -2.6215929985046387,
        -5.172361373901367
      ],
      "type": "VEC3"
    },
    {
      "bufferView": 1,
      "byteOffset": 76368,
      "componentType": 5126,
      "count": 244,
      "max": [
        0.9928967356681824,
        0.9995371103286743,
        0.9938389658927917
      ],
      "min": [
        -0.9884373545646667,
        -0.9984735250473022,
        -0.9917641282081604
      ],
      "type": "VEC3"
    },
    {
      "bufferView": 2,
      "byteOffset": 48960,
      "componentType": 5126,
      "count": 244,
      "max": [
        1.0,
        1.0,
        1.0,
        1.0
      ],
      "min": [
        1.0,
        1.0,
        1.0,
        1.0
      ],
      "type": "VEC4"
    },
    {
      "bufferView": 0,
      "byteOffset": 46368,
      "componentType": 5125,
      "count": 1008,
      "type": "SCALAR"
    },
    {
      "bufferView": 3,
      "componentType": 5126,
      "count": 126,
      "max": [
        15.0
      ],
      "min": [
        0.0416666679084301
      ],
      "type": "SCALAR"
    },
    {
      "bufferView": 4,
      "componentType": 5126,
      "count": 126,
      "max": [
        0.0,
        0.0,
        3.5
      ],
      "min": [
        0.0,
        0.0,
        -3.5
      ],
      "type": "VEC3"
    },
    {
      "bufferView": 3,
      "byteOffset": 504,
      "componentType": 5126,
      "count": 206,
      "max": [
        15.0
      ],
      "min": [
        0.0416666679084301
      ],
      "type": "SCALAR"
    },
    {
      "bufferView": 5,
      "componentType": 5126,
      "count": 206,
      "max": [
        0.006170591805130243,
        0.70710688829422,
        0.7071068286895752,
        0.7070795297622681
      ],
      "min": [
        -0.6967886090278625,
        -0.7071067690849304,
        -0.7071067690849304,
        -0.006170591805130243
      ],
      "type": "VEC4"
    }
  ],
  "animations": [
    {
      "channels": [
        {
          "sampler": 0,
          "target": {
            "node": 3,
            "path": "translation"
          }
        },
        {
          "sampler": 1,
          "target": {
            "node": 3,
            "path": "rotation"
          }
        }
      ],
      "name": "Action",
      "samplers": [
        {
          "input": 40,
          "interpolation": "LINEAR",
          "output": 41
        },
        {
          "input": 42,
          "interpolation": "LINEAR",
          "output": 43
        }
      ]
    }
  ],
  "asset": {
    "extras": {
      "author": "Michael Aristov (https://sketchfab.com/Michael.Aristov)",
      "license": "CC-BY-SA-4.0 (http://creativecommons.org/licenses/by-sa/4.0/)",
      "source": "https://sketchfab.com/3d-models/enantiomers-of-bromochloroiodomethane-4d600d77876540afb806467bd3792999",
      "title": "Enantiomers of bromochloroiodomethane"
    },
    "generator": "Sketchfab-12.66.0",
    "version": "2.0"
  },
  "bufferViews": [
    {
      "buffer": 0,
      "byteLength": 50400,
      "name": "floatBufferViews",
      "target": 34963
    },
    {
      "buffer": 0,
      "byteLength": 79296,
      "byteOffset": 50400,
      "byteStride": 12,
      "name": "floatBufferViews",
      "target": 34962
    },
    {
      "buffer": 0,
      "byteLength": 52864,
      "byteOffset": 129696,
      "byteStride": 16,
      "name": "floatBufferViews",
      "target": 34962
    },
    {
      "buffer": 0,
      "byteLength": 1328,
      "byteOffset": 182560,
      "name": "floatBufferViews"
    },
    {
      "buffer": 0,
      "byteLength": 1512,
      "byteOffset": 183888,
      "byteStride": 12,
      "name": "floatBufferViews"
    },
    {
      "buffer": 0,
      "byteLength": 3296,
      "byteOffset": 185400,
      "byteStride": 16,
      "name": "floatBufferViews"
    }
  ],
  "buffers": [
    {
      "byteLength": 188696,
      "uri": "scene.bin"
    }
  ],
  "materials": [
    {
      "doubleSided": true,
      "name": "material_1.001",
      "pbrMetallicRoughness": {
        "baseColorFactor": [
          0.0,
          0.0,
          0.0,
          1.0
        ],
        "metallicFactor": 0.0,
        "roughnessFactor": 0.5
      }
    },
    {
      "doubleSided": true,
      "name": "material_2.001",
      "pbrMetallicRoughness": {
        "baseColorFactor": [
          0.65098,
          0.16078399999999998,
          0.16078399999999998,
          1.0
        ],
        "metallicFactor": 0.0,
        "roughnessFactor": 0.5
      }
    },
    {
      "doubleSided": true,
      "name": "material_0.001",
      "pbrMetallicRoughness": {
        "metallicFactor": 0.0,
        "roughnessFactor": 0.5
      }
    },
    {
      "doubleSided": true,
      "name": "material_3.001",
      "pbrMetallicRoughness": {
        "baseColorFactor": [
          0.580392,
          0.0,
          0.580392,
          1.0
        ],
        "metallicFactor": 0.0,
        "roughnessFactor": 0.5
      }
    },
    {
      "doubleSided": true,
      "name": "material_4.001",
      "pbrMetallicRoughness": {
        "baseColorFactor": [
          0.121569,
          0.941176,
          0.121569,
          1.0
        ],
        "metallicFactor": 0.0,
        "roughnessFactor": 0.5
      }
    },
    {
      "alphaMode": "BLEND",
      "doubleSided": true,
      "name": "material_1",
      "pbrMetallicRoughness": {
        "baseColorFactor": [
          0.0,
          0.0,
          0.0,
          0.75
        ],
        "metallicFactor": 0.0,
        "roughnessFactor": 0.5
      }
    },
    {
      "alphaMode": "BLEND",
      "doubleSided": true,
      "name": "material_2",
      "pbrMetallicRoughness": {
        "baseColorFactor": [
          0.65098,
          0.16078399999999998,
          0.16078399999999998,
          0.75
        ],
        "metallicFactor": 0.0,
        "roughnessFactor": 0.5
      }
    },
    {
      "alphaMode": "BLEND",
      "doubleSided": true,
      "name": "material_0",
      "pbrMetallicRoughness": {
        "baseColorFactor": [
          1.0,
          1.0,
          1.0,
          0.75
        ],
        "metallicFactor": 0.0,
        "roughnessFactor": 0.5
      }
    },
    {
      "alphaMode": "BLEND",
      "doubleSided": true,
      "name": "material_3",
      "pbrMetallicRoughness": {
        "baseColorFactor": [
          0.580392,
          0.0,
          0.580392,
          0.75
        ],
        "metallicFactor": 0.0,
        "roughnessFactor": 0.5
      }
    },
    {
      "alphaMode": "BLEND",
      "doubleSided": true,
      "name": "material_4",
      "pbrMetallicRoughness": {
        "baseColorFactor": [
          0.12156899999999987,
          0.9411759999999998,
          0.12156899999999987,
          0.75
        ],
        "metallicFactor": 0.0,
        "roughnessFactor": 0.5
      }
    }
  ],
  "meshes": [
    {
      "name": "Object_0",
      "primitives": [
        {
          "attributes": {
            "COLOR_0": 2,
            "NORMAL": 1,
            "POSITION": 0
          },
          "indices": 3,
          "material": 0,
          "mode": 4
        }
      ]
    },
    {
      "name": "Object_1",
      "primitives": [
        {
          "attributes": {
            "COLOR_0": 6,
            "NORMAL": 5,
            "POSITION": 4
          },
          "indices": 7,
          "material": 1,
          "mode": 4
        }
      ]
    },
    {
      "name": "Object_2",
      "primitives": [
        {
          "attributes": {
            "COLOR_0": 10,
            "NORMAL": 9,
            "POSITION": 8
          },
          "indices": 11,
          "material": 2,
          "mode": 4
        }
      ]
    },
    {
      "name": "Object_3",
      "primitives": [
        {
          "attributes": {
            "COLOR_0": 14,
            "NORMAL": 13,
            "POSITION": 12
          },
          "indices": 15,
          "material": 3,
          "mode": 4
        }
      ]
    },
    {
      "name": "Object_4",
      "primitives": [
        {
          "attributes": {
            "COLOR_0": 18,
            "NORMAL": 17,
            "POSITION": 16
          },
          "indices": 19,
          "material": 4,
          "mode": 4
        }
      ]
    },
    {
      "name": "Object_5",
      "primitives": [
        {
          "attributes": {
            "COLOR_0": 22,
            "NORMAL": 21,
            "POSITION": 20
          },
          "indices": 23,
          "material": 5,
          "mode": 4
        }
      ]
    },
    {
      "name": "Object_6",
      "primitives": [
        {
          "attributes": {
            "COLOR_0": 26,
            "NORMAL": 25,
            "POSITION": 24
          },
          "indices": 27,
          "material": 6,
          "mode": 4
        }
      ]
    },
    {
      "name": "Object_7",
      "primitives": [
        {
          "attributes": {
            "COLOR_0": 30,
            "NORMAL": 29,
            "POSITION": 28
          },
          "indices": 31,
          "material": 7,
          "mode": 4
        }
      ]
    },
    {
      "name": "Object_8",
      "primitives": [
        {
          "attributes": {
            "COLOR_0": 34,
            "NORMAL": 33,
            "POSITION": 32
          },
          "indices": 35,
          "material": 8,
          "mode": 4
        }
      ]
    },
    {
      "name": "Object_9",
      "primitives": [
        {
          "attributes": {
            "COLOR_0": 38,
            "NORMAL": 37,
            "POSITION": 36
          },
          "indices": 39,
          "material": 9,
          "mode": 4
        }
      ]
    }
  ],
  "nodes": [
    {
      "children": [
        1
      ],
      "matrix": [
        2.220446049250313e-16,
        3.828568672208042e-16,
        -1.0,
        0.0,
        -1.0,
        -1.6081226229577287e-16,
        -2.2204460492503136e-16,
        0.0,
        -1.6081226229577292e-16,
        1.0,
        3.828568672208042e-16,
        0.0,
        -0.28892984986305237,
        1.2676180185849079e-08,
        -0.36147117614746094,
        1.0
      ],
      "name": "Sketchfab_model"
    },
    {
      "children": [
        2
      ],
      "name": "root"
    },
    {
      "children": [
        3,
        9
      ],
      "matrix": [
        1.0,
        0.0,
        0.0,
        0.0,
        0.0,
        2.220446049250313e-16,
        1.0,
        0.0,
        0.0,
        -1.0,
        2.220446049250313e-16,
        0.0,
        0.0,
        0.0,
        0.0,
        1.0
      ],
      "name": "GLTF_SceneRootNode"
    },
    {
      "children": [
        4,
        5,
        6,
        7,
        8
      ],
      "name": "subnode_0.002_0",
      "rotation": [
        0.0,
        0.7071068286895752,
        0.7071068286895752,
        -3.090862321641907e-08
      ],
      "scale": [
        -0.42500001192092896,
        -0.42500001192092896,
        -0.42500001192092896
      ],
      "translation": [
        0.0,
        0.0,
        3.5
      ]
    },
    {
      "mesh": 0,
      "name": "Object_4"
    },
    {
      "mesh": 1,
      "name": "Object_5"
    },
    {
      "mesh": 2,
      "name": "Object_6"
    },
    {
      "mesh": 3,
      "name": "Object_7"
    },
    {
      "mesh": 4,
      "name": "Object_8"
    },
    {
      "children": [
        10
      ],
      "matrix": [
        1.0,
        0.0,
        0.0,
        0.0,
        0.0,
        -1.685873969314855e-07,
        0.9999999999999858,
        0.0,
        0.0,
        -0.9999999999999858,
        -1.685873969314855e-07,
        0.0,
        0.0,
        0.0,
        0.0,
        1.0
      ],
      "name": "node_1_6"
    },
    {
      "children": [
        11,
        12,
        13,
        14,
        15
      ],
      "matrix": [
        0.44999998807907104,
        0.0,
        0.0,
        0.0,
        0.0,
        0.44999998807907104,
        0.0,
        0.0,
        0.0,
        0.0,
        0.44999998807907104,
        0.0,
        0.0,
        -3.5,
        0.0,
        1.0
      ],
      "name": "subnode_0_5"
    },
    {
      "mesh": 5,
      "name": "Object_11"
    },
    {
      "mesh": 6,
      "name": "Object_12"
    },
    {
      "mesh": 7,
      "name": "Object_13"
    },
    {
      "mesh": 8,
      "name": "Object_14"
    },
    {
      "mesh": 9,
      "name": "Object_15"
    }
  ],
  "scene": 0,
  "scenes": [
    {
      "name": "Sketchfab_Scene",
      "nodes": [
        0
      ]
    }
  ]
}
